# xmcd
#
# Track frame offsets: 
#        150
#        15734
#        33377
#        47683
#        67179
#        75449
#        94078
#        112466
#        125553
#        134643
#
# Disc length: 1919 seconds
#
# Revision: 0
# Processed by: cddbd v1.5.2PL0 Copyright (c) Steve Scherf et al.
# Submitted via: ExactAudioCopy v0.95b4
#
DISCID=8f077d0a
DTITLE=Hardin, Tim - This Is Tim Hardin
DYEAR=1967
DGENRE=Blues
TTITLE0=I can't slow down
TTITLE1=Blues on the ceilin'
TTITLE2=Stagger Lee
TTITLE3=(I'm your) hoochie coochie man
TTITLE4=I've been working on the railroad
TTITLE5=House of the rising sun
TTITLE6=Fast freight
TTITLE7=Cocaine Bill
TTITLE8=You got to have more than one woman
TTITLE9=Danville Dame
EXTD=
EXTT0=
EXTT1=
EXTT2=
EXTT3=
EXTT4=
EXTT5=
EXTT6=
EXTT7=
EXTT8=
EXTT9=
PLAYORDER=
